<svg xmlns="http://www.w3.org/2000/svg" viewBox="0 0 415.39 417.48"><defs><style>.cls-1{font-size:48px;fill:#efefef;font-family:Cambria;}</style></defs><g id="Layer_2" data-name="Layer 2"><g id="Layer_1-2" data-name="Layer 1"><text class="cls-1" transform="translate(177.63 44.57) rotate(-10.16)">S</text><text class="cls-1" transform="matrix(1, -0.02, 0.02, 1, 199.9, 40.37)">C</text><text class="cls-1" transform="translate(225.62 39.49) rotate(8.28)">R</text><text class="cls-1" transform="translate(252.88 43.18) rotate(18.56)">O</text><text class="cls-1" transform="translate(281.3 52.86) rotate(28.47)">L</text><text class="cls-1" transform="matrix(0.79, 0.61, -0.61, 0.79, 302.96, 64.51)">L</text><text class="cls-1" transform="matrix(0.72, 0.69, -0.69, 0.72, 322.51, 79.89)"> </text><text class="cls-1" transform="matrix(0.68, 0.73, -0.73, 0.68, 329.81, 86.82)"> </text><text class="cls-1" transform="matrix(0.63, 0.78, -0.78, 0.63, 336.67, 94.21)"> </text><text class="cls-1" transform="matrix(0.54, 0.84, -0.84, 0.54, 343.23, 101.34)">T</text><text class="cls-1" transform="translate(357.69 123.53) rotate(67.69)">O</text><text class="cls-1" transform="translate(368.66 151.83) rotate(74.98)"> </text><text class="cls-1" transform="translate(371.28 161.53) rotate(78.65)"> </text><text class="cls-1" transform="matrix(0.13, 0.99, -0.99, 0.13, 373.27, 171.39)"> </text><text class="cls-1" transform="translate(375.1 180.93) rotate(88.84)">E</text><text class="cls-1" transform="translate(375.73 207.31) rotate(98.26)">X</text><text class="cls-1" transform="translate(372.08 233.2) rotate(107.74)">P</text><text class="cls-1" transform="translate(364.18 258.01) rotate(116.95)">L</text><text class="cls-1" transform="matrix(-0.6, 0.8, -0.8, -0.6, 353.57, 279.71)">O</text><text class="cls-1" transform="matrix(-0.73, 0.68, -0.68, -0.73, 335.69, 303.79)">R</text><text class="cls-1" transform="translate(314.81 323.17) rotate(147.06)">E</text><text class="cls-1" transform="translate(274.07 346.16) rotate(161.07)"> </text><text class="cls-1" transform="matrix(-0.96, 0.26, -0.26, -0.96, 264.56, 349.44)"> </text><text class="cls-1" transform="matrix(-0.99, 0.16, -0.16, -0.99, 255.22, 352.38)">S</text><text class="cls-1" transform="matrix(-1, 0.01, -0.01, -1, 232.89, 356.28)">C</text><text class="cls-1" transform="translate(207.18 356.83) rotate(-170.87)">R</text><text class="cls-1" transform="translate(179.96 352.73) rotate(-160.58)">O</text><text class="cls-1" transform="translate(151.67 342.62) rotate(-150.72)">L</text><text class="cls-1" transform="translate(130.19 330.68) rotate(-141.88)">L</text><text class="cls-1" transform="translate(110.85 315.04) rotate(-135.65)"> </text><text class="cls-1" transform="matrix(-0.67, -0.74, 0.74, -0.67, 103.64, 308.01)"> </text><text class="cls-1" transform="translate(96.9 300.55) rotate(-128.38)"> </text><text class="cls-1" transform="matrix(-0.52, -0.85, 0.85, -0.52, 90.42, 293.31)">T</text><text class="cls-1" transform="translate(76.27 270.92) rotate(-111.47)">O</text><text class="cls-1" transform="matrix(-0.25, -0.97, 0.97, -0.25, 65.72, 242.47)"> </text><text class="cls-1" transform="translate(63.24 232.73) rotate(-100.57)"> </text><text class="cls-1" transform="translate(61.43 222.89) rotate(-97.4)"> </text><text class="cls-1" transform="translate(59.67 213.25) rotate(-90.46)">E</text><text class="cls-1" transform="matrix(0.16, -0.99, 0.99, 0.16, 59.36, 186.9)">X</text><text class="cls-1" transform="matrix(0.32, -0.95, 0.95, 0.32, 63.39, 161.04)">P</text><text class="cls-1" transform="translate(71.64 136.36) rotate(-62.28)">L</text><text class="cls-1" transform="translate(82.54 114.82) rotate(-52.59)">O</text><text class="cls-1" transform="translate(100.71 90.97) rotate(-42.09)">R</text><text class="cls-1" transform="matrix(0.85, -0.53, 0.53, 0.85, 121.85, 71.84)">E</text></g></g></svg>